<svg width="177" height="164" viewBox="0 0 177 164" fill="none" xmlns="http://www.w3.org/2000/svg">
<path d="M41.6822 79.3228C29.6054 88.3425 33.448 95.9853 27.847 102.789C23.9307 107.544 7.00716 107.163 1.60251 118.912C-3.80214 130.66 7.69222 140.269 26.9901 143.614C46.2879 146.959 59.6634 149.436 69.8702 157.507C80.077 165.579 106.228 166.172 123.044 152.19C139.861 138.207 166.781 150.181 175.361 131.321C181.725 117.318 160.439 111.365 158.723 100.729C157.007 90.0942 141.902 72.6842 119.951 80.1463C98.0003 87.6083 60.1209 65.5457 41.6822 79.3228Z" fill="#E1ECFF"/>
<path d="M121.197 107.496C120.206 105.71 120.206 103.952 121.899 101.424C125.073 96.5278 126.894 90.6702 126.894 84.094C126.894 64.265 110.354 48.1895 89.9513 48.1895C69.5489 48.1895 53.0069 64.2561 53.0069 84.094C52.9872 87.9208 53.6452 91.7209 54.9505 95.3183C56.0886 98.3955 56.5483 103.532 54.0334 106.047C51.4203 108.66 46.8927 109.078 45.2838 112.052C43.474 115.386 46.0269 119.999 53.9553 118.95C56.7179 118.584 64.0952 114.656 66.9537 118.626C69.1138 121.625 76.8391 128.291 86.8563 124.162C98.6407 119.311 103.528 119.363 109.517 120.971C119.951 123.772 128.154 119.827 128.877 116.111C129.966 110.499 122.187 109.287 121.197 107.496Z" fill="#01A0C6"/>
<g style="mix-blend-mode:multiply" opacity="0.2">
<path d="M115.047 80.0082C115.047 80.0082 121.629 87.5261 119.956 94.5753C118.282 101.625 115.122 107.741 126.079 110.539C136.69 93.2744 139.95 83.7839 139.95 83.7839C139.95 83.7839 118.394 77.6049 115.047 80.0082Z" fill="#FF97C9"/>
</g>
<g style="mix-blend-mode:soft-light" opacity="0.79">
<path d="M71.9139 72.4183C75.4808 69.3912 76.9152 65.2203 75.1178 63.1024C73.3204 60.9844 68.9717 61.7214 65.4048 64.7485C61.8379 67.7756 60.4035 71.9464 62.2009 74.0644C63.9984 76.1824 68.347 75.4454 71.9139 72.4183Z" fill="white"/>
</g>
<path d="M74.9736 90.4179C77.0834 90.4179 78.7938 88.7075 78.7938 86.5976C78.7938 84.4877 77.0834 82.7773 74.9736 82.7773C72.8637 82.7773 71.1533 84.4877 71.1533 86.5976C71.1533 88.7075 72.8637 90.4179 74.9736 90.4179Z" fill="#1C3177"/>
<g style="mix-blend-mode:soft-light" opacity="0.79">
<path d="M102.483 89.4694C102.483 89.4694 103.211 90.6967 102.865 91.8481C102.519 92.9996 101.426 94.749 102.765 96.2821C104.103 97.8151 106.451 96.9962 106.855 95.3516C107.259 93.7069 105.235 91.288 106.281 89.9447C105.59 88.9427 102.483 89.4694 102.483 89.4694Z" fill="white"/>
</g>
<path d="M104.538 90.4179C106.648 90.4179 108.359 88.7075 108.359 86.5976C108.359 84.4877 106.648 82.7773 104.538 82.7773C102.429 82.7773 100.718 84.4877 100.718 86.5976C100.718 88.7075 102.429 90.4179 104.538 90.4179Z" fill="#1C3177"/>
<path d="M85.2005 94.5755C85.2005 94.5755 86.1533 91.7549 89.8129 91.7549C93.4726 91.7549 94.3116 94.5755 94.3116 94.5755" stroke="#413F4C" stroke-width="2.00833" stroke-miterlimit="10" stroke-linecap="round"/>
<path d="M73.9002 45.3731L130.975 79.3229L141.632 6.77517C142.378 1.73425 136.636 -1.67769 132.559 1.37944L73.9002 45.3731Z" fill="#FEA691"/>
<path d="M69.5248 46.3026L68.1686 48.5831C67.3106 50.0258 67.7846 51.8908 69.2273 52.7488L126.712 86.9351C128.155 87.7931 130.02 87.319 130.878 85.8763L132.234 83.5959C133.092 82.1532 132.618 80.2881 131.175 79.4301L73.6905 45.2439C72.2478 44.3859 70.3827 44.8599 69.5248 46.3026Z" fill="#FEC272"/>
<g style="mix-blend-mode:soft-light" opacity="0.79">
<path d="M83.7969 64.9728L100.718 56.6784L65.9585 36.8428L59.0967 48.1899L83.7969 64.9728Z" fill="white"/>
</g>
<g style="mix-blend-mode:multiply" opacity="0.36">
<path d="M138.627 27.2402C138.627 27.2402 130.711 55.1762 101.278 61.6586L130.975 79.323L138.627 27.2402Z" fill="#FEA691"/>
</g>
<path d="M109.517 34.0059L113.518 48.1892" stroke="#FF8D76" stroke-width="2.90093" stroke-miterlimit="10" stroke-linecap="round"/>
<path d="M115.047 24.0049L119.05 38.1882" stroke="#FF8D76" stroke-width="2.90093" stroke-miterlimit="10" stroke-linecap="round"/>
<path d="M96.1147 40.9746L98.0784 47.9368" stroke="#FF8D76" stroke-width="2.90093" stroke-miterlimit="10" stroke-linecap="round"/>
<g style="mix-blend-mode:multiply" opacity="0.48">
<path d="M121.194 58.6437L128.154 56.6777" stroke="#FF8D76" stroke-width="2.90093" stroke-miterlimit="10" stroke-linecap="round"/>
</g>
<path d="M109.517 33.2004L123.377 28.1885" stroke="#FF8D76" stroke-width="2.90093" stroke-miterlimit="10" stroke-linecap="round"/>
<path d="M49.3048 124.687C46.0469 124.39 41.1867 125.943 40.5396 128.422C39.8924 130.901 45.1855 132.332 49.9118 131.928C54.9416 131.499 56.6955 129.473 56.3831 128.391C56.0707 127.309 53.8325 125.095 49.3048 124.687Z" fill="#FF97C9"/>
<path d="M114.297 125.475C110.974 125.825 110.218 129.375 112.657 130.672C115.096 131.968 121.92 131.015 121.806 128.766C121.692 126.517 118.758 125.004 114.297 125.475Z" fill="#FF97C9"/>
</svg>
